<mxfile host="app.diagrams.net" modified="2025-04-29T16:46:20.307Z" agent="Mozilla/5.0 (Windows NT 10.0; Win64; x64) AppleWebKit/537.36 (KHTML, like Gecko) Chrome/135.0.0.0 Safari/537.36" version="24.3.0" etag="Q-whrrrfJq_ekiZ1x-L6" type="github">
  <diagram name="PÃ¡gina-1" id="TGyNHmRCv7JRQ8MyhPaJ">
    <mxGraphModel>
      <root>
        <mxCell id="0" />
        <mxCell id="1" parent="0" />
      </root>
    </mxGraphModel>
  </diagram>
</mxfile>
